<svg width="38" height="38" viewBox="0 0 38 38" fill="none" xmlns="http://www.w3.org/2000/svg">
<g filter="url(#filter0_d_2011_38)">
<path d="M23.0833 9H14.9167C14.1434 9.00094 13.4021 9.31252 12.8553 9.8664C12.3085 10.4203 12.0009 11.1712 12 11.9545V19.0455C12.0009 19.8288 12.3085 20.5797 12.8553 21.1336C13.4021 21.6875 14.1434 21.9991 14.9167 22H23.0833C23.8566 21.9991 24.5979 21.6875 25.1447 21.1336C25.6915 20.5797 25.9991 19.8288 26 19.0455V11.9545C25.9991 11.1712 25.6915 10.4203 25.1447 9.8664C24.5979 9.31252 23.8566 9.00094 23.0833 9ZM14.9167 10.1818H23.0833C23.4326 10.1825 23.7737 10.2891 24.0627 10.4878C24.3517 10.6865 24.5754 10.9683 24.705 11.2969L20.2378 15.8226C19.9091 16.1543 19.464 16.3405 19 16.3405C18.536 16.3405 18.0909 16.1543 17.7622 15.8226L13.295 11.2969C13.4246 10.9683 13.6483 10.6865 13.9373 10.4878C14.2263 10.2891 14.5674 10.1825 14.9167 10.1818ZM23.0833 20.8182H14.9167C14.4525 20.8182 14.0074 20.6314 13.6792 20.299C13.351 19.9665 13.1667 19.5156 13.1667 19.0455V12.8409L16.9373 16.6582C17.4849 17.2114 18.2266 17.5221 19 17.5221C19.7734 17.5221 20.5151 17.2114 21.0627 16.6582L24.8333 12.8409V19.0455C24.8333 19.5156 24.649 19.9665 24.3208 20.299C23.9926 20.6314 23.5475 20.8182 23.0833 20.8182Z" fill="white"/>
<path d="M8.7482 4.7468L8.74809 4.74691C6.0288 7.46629 4.50078 11.1543 4.5 15L8.7482 4.7468ZM8.7482 4.7468C11.4645 2.02868 15.1552 0.5 19 0.5C22.8448 0.5 26.5355 2.02868 29.2518 4.7468L29.2519 4.74694C31.9707 7.46523 33.5 11.156 33.5 15C33.5 18.844 31.9707 22.5348 29.2519 25.2531L29.2518 25.2532C26.5355 27.9713 22.8448 29.5 19 29.5C15.1552 29.5 11.4645 27.9713 8.7482 25.2532L8.74805 25.2531M8.7482 4.7468L8.74805 25.2531M8.74805 25.2531C6.02933 22.5348 4.50003 18.844 4.5 15.0001L8.74805 25.2531Z" stroke="white"/>
</g>
<defs>
<filter id="filter0_d_2011_38" x="0" y="0" width="38" height="38" filterUnits="userSpaceOnUse" color-interpolation-filters="sRGB">
<feFlood flood-opacity="0" result="BackgroundImageFix"/>
<feColorMatrix in="SourceAlpha" type="matrix" values="0 0 0 0 0 0 0 0 0 0 0 0 0 0 0 0 0 0 127 0" result="hardAlpha"/>
<feOffset dy="4"/>
<feGaussianBlur stdDeviation="2"/>
<feComposite in2="hardAlpha" operator="out"/>
<feColorMatrix type="matrix" values="0 0 0 0 0 0 0 0 0 0 0 0 0 0 0 0 0 0 0.25 0"/>
<feBlend mode="normal" in2="BackgroundImageFix" result="effect1_dropShadow_2011_38"/>
<feBlend mode="normal" in="SourceGraphic" in2="effect1_dropShadow_2011_38" result="shape"/>
</filter>
</defs>
</svg>
